<svg id="Capa_1" data-name="Capa 1" xmlns="http://www.w3.org/2000/svg" viewBox="0 0 432 326"><defs><style>.cls-1{fill:#fff;}</style></defs><path class="cls-1" d="M0,325.42v29.95A23.8,23.8,0,0,0,23.83,379h26.4A23.74,23.74,0,0,0,74,355.37V333H23.83A40.57,40.57,0,0,1,0,325.42Z" transform="translate(0 -53)"/><path class="cls-1" d="M307.33,112.4a50.77,50.77,0,0,0-50,42.6h99.92A50.78,50.78,0,0,0,307.33,112.4Z" transform="translate(0 -53)"/><rect class="cls-1" x="47" y="178" width="59" height="36"/><path class="cls-1" d="M419.54,182.36c-.12-.11-.32-.28-.43-.4L409,171H28.56L14.34,184.29c-.09.09-.22.27-.31.35A39.5,39.5,0,0,0,0,214.77V293.6A23.6,23.6,0,0,0,23.8,317H408.17A23.6,23.6,0,0,0,432,293.64v-82.5A39.89,39.89,0,0,0,419.54,182.36ZM122,275a8,8,0,0,1-8,8H39a8,8,0,0,1-8-8V223a8,8,0,0,1,8-8h75a8,8,0,0,1,8,8Zm142.31-2H167.7a8,8,0,0,1,0-16h96.61a8,8,0,0,1,0,16Zm0-31H167.7a8,8,0,0,1,0-16h96.61a8,8,0,0,1,0,16ZM401,275a8,8,0,0,1-8,8H318a8,8,0,0,1-8-8V223a8,8,0,0,1,8-8h75a8,8,0,0,1,8,8Z" transform="translate(0 -53)"/><path class="cls-1" d="M358,333v22.37A23.74,23.74,0,0,0,381.77,379h26.4A23.8,23.8,0,0,0,432,355.37V325.42A40.57,40.57,0,0,1,408.17,333Z" transform="translate(0 -53)"/><rect class="cls-1" x="326" y="178" width="59" height="36"/><path class="cls-1" d="M307.33,96.4a66.65,66.65,0,0,1,66.1,58.6h28L369.25,68.32A23.63,23.63,0,0,0,347.06,53H91.28a23.65,23.65,0,0,0-22.2,15.32L36.91,155H241.23A66.65,66.65,0,0,1,307.33,96.4Z" transform="translate(0 -53)"/></svg>