<svg id="Capa_1" data-name="Capa 1" xmlns="http://www.w3.org/2000/svg" viewBox="0 0 512 512"><defs><style>.cls-1{fill:#fff;}</style></defs><g id="Burger"><path class="cls-1" d="M407,512H105A105.13,105.13,0,0,1,0,407a15,15,0,0,1,15-15H497a15,15,0,0,1,15,15A105.13,105.13,0,0,1,407,512Z"/><path class="cls-1" d="M256,0C115.39,0,0,87.48,0,195a15,15,0,0,0,15,15H497a15,15,0,0,0,15-15C512,87.48,396.61,0,256,0ZM145.61,115.61l-30,30a15,15,0,0,1-21.22-21.22l30-30a15,15,0,0,1,21.22,21.22Zm91,0-30,30a15,15,0,0,1-21.22-21.22l30-30a15,15,0,1,1,21.22,21.22Zm90,0-30,30a15,15,0,0,1-21.22-21.22l30-30a15,15,0,1,1,21.22,21.22Zm82.66,0-30,30a15,15,0,1,1-21.21-21.22l30-30a15,15,0,0,1,21.21,21.22Z"/></g><g id="Burger-2" data-name="Burger"><path class="cls-1" d="M15,271a70.6,70.6,0,0,1,18.9,2.4c-2.12,6.82-2.71,8.86-3.9,30A41.25,41.25,0,0,0,15,301a15,15,0,0,1,0-30Z"/><path class="cls-1" d="M512,286a14.85,14.85,0,0,1-15,15,41.25,41.25,0,0,0-15,2.4c-.32-5.76.29-16.51-3.9-30A70.6,70.6,0,0,1,497,271,14.85,14.85,0,0,1,512,286Z"/></g><path class="cls-1" d="M33.9,273.4c13.5,3.3,22.5,9.9,30,15.6,9.3,6.9,16.2,12,31.2,12s21.6-5.1,30.9-12c10.8-8.1,25-18,49.9-18,25.2,0,38.4,9.9,49.2,18,9.3,6.9,15.9,12,30.9,12s21.6-5.1,30.9-12c10.8-8.1,24-18,49.2-18,24.9,0,39.1,9.9,49.9,18,9.3,6.9,15.9,12,30.9,12s21.9-5.1,31.2-12c7.5-5.7,16.5-12.3,30-15.6A103.74,103.74,0,0,0,462.88,241H49.12A103.74,103.74,0,0,0,33.9,273.4Z"/><path class="cls-1" d="M463.09,361A103.91,103.91,0,0,0,482,303.4c-6,2.1-10.5,5.7-15.9,9.6-10.8,8.1-24,18-49.2,18-24.9,0-38.1-9.9-48.9-18-9.3-6.9-16.9-12-31.9-12s-21.9,5.1-31.2,12c-10.5,8.1-24,18-48.9,18s-38.4-9.9-48.9-18c-9.3-6.9-16.2-12-31.2-12s-22.6,5.1-31.9,12c-10.8,8.1-24,18-48.9,18-25.2,0-38.4-9.9-49.2-18-5.4-3.9-9.9-7.5-15.9-9.6A103.91,103.91,0,0,0,48.91,361Z"/></svg>